<svg xmlns="http://www.w3.org/2000/svg" width="27" height="27"><g fill="none" fill-rule="evenodd"><circle cx="13.5" cy="13.5" r="13.5" style="fill-opacity:0.2" fill="#C6C6C6"/><path fill="#FFF" style="fill-opacity: 0.5" fill-rule="nonzero" d="M10.853 17.031c-.8 0-1.444-.163-2.247-.321l-2.242 1.123.642-1.929c-1.606-1.122-2.567-2.568-2.567-4.33 0-3.052 2.888-5.455 6.414-5.455 3.154 0 5.917 1.92 6.472 4.505a5.595 5.595 0 0 0-.618-.039c-3.047 0-5.453 2.274-5.453 5.077 0 .466.073.915.198 1.344a7.52 7.52 0 0 1-.6.025zm9.46 2.247l.483 1.603-1.758-.963c-.642.16-1.287.322-1.925.322-3.052 0-5.456-2.086-5.456-4.655 0-2.565 2.404-4.655 5.456-4.655 2.882 0 5.448 2.09 5.448 4.655 0 1.446-.96 2.727-2.247 3.693z"/><path fill="#333333" fill-rule="nonzero" d="M8.791 8.889c-.495 0-.994.313-.994.787 0 .473.5.79.994.79.496 0 .826-.317.826-.79 0-.474-.33-.787-.826-.787zM15.36 13.5c-.322 0-.647.335-.647.668 0 .337.325.667.647.667.49 0 .81-.33.81-.667 0-.333-.32-.668-.81-.668zm-2.08-3.034c.497 0 .827-.317.827-.79 0-.474-.33-.787-.828-.787-.495 0-.992.313-.992.787 0 .473.497.79.992.79zm5.597 3.034c-.321 0-.644.335-.644.668 0 .337.323.667.644.667.486 0 .812-.33.812-.667 0-.333-.326-.668-.812-.668z"/></g></svg>